<?xml version="1.0" standalone="no"?>
<!DOCTYPE svg PUBLIC "-//W3C//DTD SVG 20010904//EN"
 "http://www.w3.org/TR/2001/REC-SVG-20010904/DTD/svg10.dtd">
<svg version="1.0" xmlns="http://www.w3.org/2000/svg"
 width="500.000000pt" height="500.000000pt" viewBox="0 0 500.000000 500.000000"
 preserveAspectRatio="xMidYMid meet">
<metadata>
Created by potrace 1.11, written by Peter Selinger 2001-2013
</metadata>
<g transform="translate(0.000000,500.000000) scale(0.100000,-0.100000)"
fill="#000000" stroke="none">
<path d="M4421 4934 c-188 -63 -420 -233 -690 -505 -181 -182 -283 -293 -456
-494 -71 -82 -132 -152 -135 -155 -3 -3 -51 -59 -106 -125 -54 -66 -103 -125
-109 -131 -5 -6 -32 -37 -60 -70 -140 -165 -329 -364 -345 -364 -3 1 -19 20
-37 43 -49 66 -260 277 -340 341 -261 209 -471 251 -604 121 -99 -95 -78 -290
60 -565 167 -333 476 -731 757 -975 155 -136 220 -158 318 -110 146 72 432
348 762 735 49 58 91 107 94 110 3 3 77 93 165 200 87 107 211 254 275 325
513 571 827 1051 868 1327 21 141 -26 241 -138 292 -70 31 -186 32 -279 0z"/>
<path d="M2048 4844 c-2 -1 -34 -5 -73 -8 -74 -7 -134 -14 -175 -21 -14 -2
-45 -7 -70 -10 -171 -23 -435 -116 -608 -215 -54 -31 -173 -109 -182 -119 -3
-4 -23 -19 -45 -36 -71 -53 -205 -188 -284 -286 -206 -255 -332 -543 -420
-959 -20 -96 -24 -124 -41 -240 -20 -142 -25 -235 -25 -465 0 -278 7 -387 40
-610 27 -182 108 -501 164 -645 189 -485 523 -817 1016 -1008 152 -58 363
-116 505 -137 25 -4 47 -8 50 -10 15 -9 205 -20 350 -20 151 0 209 4 340 21
90 11 358 76 475 115 254 84 516 255 695 454 25 27 50 54 56 60 21 20 92 112
132 172 112 166 268 525 307 706 2 9 6 21 9 25 3 5 8 24 11 43 3 19 8 41 10
49 5 17 9 40 29 160 34 197 41 312 40 610 0 234 -7 367 -22 437 l-7 33 -50
-61 c-27 -34 -54 -67 -60 -73 -5 -6 -48 -56 -95 -111 -47 -55 -92 -107 -100
-115 -57 -60 -154 -174 -244 -284 -93 -115 -106 -135 -115 -185 -20 -106 -22
-116 -43 -191 -79 -287 -170 -450 -365 -653 -246 -257 -554 -367 -933 -334
-155 13 -398 96 -555 190 -238 141 -405 412 -500 809 -13 57 -27 119 -30 138
-3 19 -10 60 -15 90 -12 72 -18 113 -25 180 -3 30 -8 72 -10 94 -23 198 -22
620 0 751 7 39 13 81 21 130 11 74 63 264 95 347 91 234 248 456 396 559 121
84 397 189 566 215 81 12 93 13 187 13 131 1 195 -7 328 -40 l85 -21 76 75
c113 111 173 167 199 184 12 8 22 19 22 23 0 18 -267 107 -370 124 -19 3 -57
10 -85 15 -27 5 -75 12 -105 16 -30 3 -68 8 -85 11 -32 5 -463 13 -467 8z"/>
</g>
</svg>
